<svg viewBox="0 0 96 96" xmlns="http://www.w3.org/2000/svg" xmlns:xlink="http://www.w3.org/1999/xlink" id="Icons_InLoveFace" overflow="hidden"><path d="M48 10C27.0132 10 10 27.0132 10 48 10 68.9868 27.0132 86 48 86 68.9868 86 86 68.9868 86 48 86 27.0132 68.9868 10 48 10ZM32 38.16C35 32.28 40 35.81 40 39.1 40 44.04 32 50.16 32 50.16 32 50.16 24 44 24 39.1 24 35.81 29 32.28 32 38.16ZM67.83 64.22C59.422 75.1718 43.7278 77.234 32.776 68.826 31.0463 67.4981 29.4979 65.9496 28.17 64.22 27.4962 63.3446 27.6596 62.0888 28.535 61.415 29.4104 60.7412 30.6662 60.9046 31.34 61.78 38.4007 70.9811 51.5835 72.7162 60.7845 65.6555 62.2401 64.5385 63.543 63.2356 64.66 61.78 65.3338 60.9046 66.5896 60.7412 67.465 61.415 68.3404 62.0888 68.5038 63.3446 67.83 64.22ZM64 50.16C64 50.16 56 44 56 39.1 56 35.81 61 32.28 64 38.16 67 32.28 72 35.81 72 39.1 72 44 64 50.16 64 50.16Z" fill="#FF5525"/></svg>