<svg viewBox="0 0 96 96" xmlns="http://www.w3.org/2000/svg" xmlns:xlink="http://www.w3.org/1999/xlink" id="Icons_InternetBanking" overflow="hidden"><path d="M70 2 26 2C23.7936 2.00659 22.0066 3.7936 22 6L22 90C22.0066 92.2064 23.7936 93.9934 26 94L70 94C72.2064 93.9934 73.9934 92.2064 74 90L74 6C73.9934 3.7936 72.2064 2.00659 70 2ZM44.5 6 51.5 6C52.3284 6 53 6.67157 53 7.5 53 8.32843 52.3284 9 51.5 9L44.5 9C43.6716 9 43 8.32843 43 7.5 43 6.67157 43.6716 6 44.5 6ZM70 83 26 83 26 13 70 13Z" fill="#FF5525"/><path d="M61.053 56.526 61.053 55.684 59.368 55.684 59.368 41.368 61.053 41.368 61.053 40.526 62.316 40.526 62.316 38 61.053 38 48 30 34.947 38 33.684 38 33.684 40.526 34.947 40.526 34.947 41.368 36.632 41.368 36.632 55.684 34.947 55.684 34.947 56.526 32 58.632 32 60.316 64 60.316 64 58.632ZM41.684 55.684 39.158 55.684 39.158 41.368 41.684 41.368ZM46.737 55.684 44.211 55.684 44.211 41.368 46.737 41.368ZM47.579 37.158C46.6484 37.1586 45.8936 36.4046 45.893 35.474 45.8924 34.5434 46.6464 33.7886 47.577 33.788 48.5076 33.7874 49.2624 34.5414 49.263 35.472 49.263 35.4727 49.263 35.4733 49.263 35.474 49.263 36.404 48.509 37.158 47.579 37.158ZM51.789 55.684 49.263 55.684 49.263 41.368 51.789 41.368ZM56.842 55.684 54.316 55.684 54.316 41.368 56.842 41.368Z" fill="#FF5525"/></svg>